<svg id="Layer_1" data-name="Layer 1" xmlns="http://www.w3.org/2000/svg" viewBox="0 0 200 200"><defs><style>.cls-1{fill:#090b0f;}.cls-2{fill:#090a0f;}</style></defs><title>track2</title><path class="cls-1" d="M102.54,167.76c12.15-13.09,29.68-18.65,42.75-30.4,9.74-8.76,22.28-14.78,27.79-27.76.78-1.83,2.73-3.61.35-5.82-2.16-2-4-1.38-6.6-.62-10.27,3-17.24,11.2-26.23,16.23-11.28,6.31-22.15,13.36-34.62,21,2.06-19.93,4.48-38.41,4.18-56.94-.27-16.9,4.64-34-1.69-50.73-.93-2.45-.56-6.36-3.77-6.4-3,0-4.66,3.1-5.7,6.07a76.54,76.54,0,0,0-4.37,24.89c0,9.88-.85,19.49-3.8,29a69.53,69.53,0,0,0-3.2,25.64c.47,6.57-.85,12.94-2,19.73-23.34-8.8-45.22-19.42-67.64-29.32,10.66,13.32,20.29,28,35.68,35.84s28,19.07,42.13,28.43a6.4,6.4,0,0,0,5.83,1.67Z"/><path class="cls-2" d="M95.57,169c-2.82.35-3.05,2.07-2.72,4.5,1,7.17,1.75,14.36,2.75,22.76,6.37-9.38,8.38-18.51,7-28.5l.22-.1C100.27,167.59,98,168.55,95.57,169Z"/><path class="cls-2" d="M106.06,10.78c-3.31,3.14-2.94,5.75-3.28,8.06-.28,1.85-1.45,4.88,2.12,4.65A3.62,3.62,0,0,0,108.34,19C107.8,16.48,107,14.06,106.06,10.78Z"/><path class="cls-2" d="M178.38,95c-1.36,2.06-4.43,3.33-2.56,6.21,1.33,2,3.75,1.81,4.44-.28,1.07-3.21,7-4.26,4.74-8C183.62,90.75,180.79,94.88,178.38,95Z"/><path class="cls-2" d="M95.57,169c2.72,1.27,5-.07,7.2-1.34l-7-1.11Z"/></svg>